<svg id="svg" version="1.1" xmlns="http://www.w3.org/2000/svg" xmlns:xlink="http://www.w3.org/1999/xlink" width="400" height="237.5" viewBox="0, 0, 400,237.5"><g id="svgg"><path id="path0" d="M123.040 0.074 C 123.040 0.133,123.433 0.480,123.912 0.846 C 124.392 1.212,124.709 1.390,124.618 1.242 C 124.430 0.938,123.040 -0.091,123.040 0.074 M134.924 0.178 C 134.928 0.276,135.222 0.566,135.578 0.823 C 135.933 1.079,138.040 2.729,140.261 4.489 C 145.259 8.449,149.217 11.574,154.751 15.928 C 157.102 17.778,160.362 20.346,161.995 21.635 C 163.628 22.924,166.407 25.115,168.171 26.504 C 171.422 29.065,174.070 31.157,180.285 36.074 C 182.179 37.573,184.317 39.260,185.036 39.824 C 186.961 41.335,193.637 46.598,195.962 48.439 C 200.916 52.360,209.188 58.883,210.443 59.857 C 211.200 60.445,212.928 61.801,214.283 62.870 C 216.314 64.474,220.437 67.712,224.914 71.222 C 225.356 71.569,226.585 72.550,227.645 73.401 C 228.705 74.253,230.909 76.002,232.542 77.287 C 234.175 78.573,235.885 79.923,236.342 80.286 C 238.756 82.207,253.514 93.845,256.520 96.200 C 258.438 97.702,261.427 100.053,263.162 101.425 C 264.897 102.797,266.669 104.186,267.100 104.513 C 267.530 104.840,269.631 106.493,271.768 108.188 C 273.905 109.883,277.203 112.493,279.097 113.989 C 280.992 115.484,283.565 117.518,284.815 118.508 C 286.066 119.499,289.531 122.233,292.516 124.584 C 298.047 128.942,298.837 129.563,305.196 134.561 C 307.191 136.128,309.969 138.319,311.369 139.430 C 312.769 140.540,315.032 142.330,316.399 143.406 C 317.765 144.483,321.354 147.315,324.374 149.701 C 327.394 152.086,331.082 154.995,332.569 156.165 C 334.056 157.335,336.770 159.477,338.599 160.925 C 340.428 162.373,345.180 166.119,349.160 169.249 C 353.140 172.380,359.035 177.025,362.261 179.572 C 365.487 182.120,369.488 185.273,371.153 186.580 C 372.817 187.886,375.633 190.103,377.410 191.506 C 379.187 192.910,382.438 195.475,384.634 197.207 C 386.829 198.939,390.624 201.943,393.066 203.882 C 397.862 207.691,399.624 209.026,399.854 209.026 C 399.934 209.026,400.000 161.995,400.000 104.513 L 400.000 0.000 267.458 0.000 C 194.561 0.000,134.920 0.080,134.924 0.178 M124.941 1.561 C 124.941 1.729,125.188 1.947,126.425 2.870 C 127.472 3.651,127.178 3.227,126.010 2.269 C 125.422 1.788,124.941 1.469,124.941 1.561 M128.504 4.354 C 128.504 4.420,128.931 4.812,129.454 5.226 C 129.976 5.640,130.404 5.925,130.404 5.859 C 130.404 5.794,129.976 5.402,129.454 4.988 C 128.931 4.574,128.504 4.289,128.504 4.354 M130.641 6.048 C 130.641 6.101,131.416 6.771,132.363 7.535 C 135.669 10.203,137.391 11.518,137.225 11.249 C 137.040 10.948,130.641 5.893,130.641 6.048 M137.530 11.499 C 137.530 11.601,144.476 17.154,146.915 19.002 C 147.345 19.329,148.163 19.953,148.730 20.390 L 149.762 21.183 148.931 20.431 C 148.474 20.017,146.244 18.217,143.975 16.431 C 138.031 11.750,137.530 11.367,137.530 11.499 M-0.000 17.668 C -0.000 17.734,0.641 18.280,1.425 18.884 C 2.209 19.487,2.850 19.927,2.850 19.861 C 2.850 19.796,2.209 19.249,1.425 18.646 C 0.641 18.043,-0.000 17.603,-0.000 17.668 M4.513 21.210 C 4.513 21.271,5.016 21.732,5.630 22.236 C 6.245 22.739,6.671 23.027,6.577 22.876 C 6.377 22.553,4.513 21.048,4.513 21.210 M149.881 21.210 C 149.881 21.271,150.384 21.732,150.998 22.236 C 151.613 22.739,152.039 23.027,151.945 22.876 C 151.746 22.553,149.881 21.048,149.881 21.210 M153.499 24.125 C 153.579 24.254,154.525 25.042,155.601 25.877 C 156.678 26.711,157.491 27.285,157.410 27.153 C 157.328 27.021,156.382 26.233,155.308 25.402 C 154.234 24.571,153.420 23.996,153.499 24.125 M9.848 25.471 C 10.865 26.385,14.252 29.018,14.252 28.895 C 14.252 28.790,9.815 25.213,9.373 24.962 C 9.237 24.885,9.451 25.114,9.848 25.471 M0.020 25.483 C 0.074 25.521,0.653 25.957,1.306 26.453 L 2.494 27.355 1.425 26.386 C 0.837 25.853,0.258 25.417,0.139 25.416 C 0.019 25.416,-0.035 25.446,0.020 25.483 M157.793 27.481 C 157.993 27.804,159.857 29.308,159.857 29.146 C 159.857 29.085,159.355 28.624,158.740 28.120 C 158.126 27.617,157.700 27.329,157.793 27.481 M4.811 29.122 C 4.892 29.253,5.627 29.886,6.445 30.528 C 7.262 31.170,7.852 31.568,7.756 31.412 C 7.659 31.256,6.924 30.623,6.122 30.006 C 5.320 29.389,4.731 28.992,4.811 29.122 M14.660 29.238 C 14.819 29.438,15.834 30.271,16.916 31.088 C 17.998 31.905,18.510 32.241,18.052 31.835 C 16.755 30.683,14.338 28.833,14.660 29.238 M160.095 29.279 C 160.095 29.331,160.549 29.735,161.105 30.176 C 161.660 30.618,161.963 30.791,161.779 30.561 C 161.432 30.129,160.095 29.111,160.095 29.279 M162.233 30.949 C 162.233 31.010,162.736 31.471,163.350 31.975 C 163.964 32.478,164.391 32.766,164.297 32.614 C 164.097 32.291,162.233 30.787,162.233 30.949 M8.076 31.654 C 8.076 31.707,8.530 32.110,9.086 32.552 C 9.641 32.993,9.944 33.166,9.760 32.937 C 9.413 32.504,8.076 31.486,8.076 31.654 M20.026 33.419 C 20.226 33.742,22.090 35.246,22.090 35.084 C 22.090 35.024,21.588 34.562,20.973 34.059 C 20.359 33.555,19.933 33.267,20.026 33.419 M11.153 34.149 C 12.163 35.049,14.489 36.856,14.489 36.741 C 14.489 36.629,11.238 33.995,10.796 33.749 C 10.660 33.673,10.820 33.853,11.153 34.149 M22.399 35.315 C 22.494 35.469,23.021 35.950,23.569 36.384 C 24.118 36.818,24.489 37.048,24.394 36.894 C 24.299 36.740,23.773 36.259,23.224 35.825 C 22.676 35.391,22.305 35.161,22.399 35.315 M167.933 35.456 C 167.933 35.531,168.922 36.369,170.131 37.317 C 171.339 38.265,172.782 39.408,173.337 39.857 C 173.893 40.307,174.347 40.616,174.347 40.545 C 174.347 40.474,173.091 39.429,171.556 38.223 C 170.021 37.017,168.578 35.871,168.349 35.675 C 168.121 35.479,167.933 35.380,167.933 35.456 M24.703 37.133 C 24.703 37.199,25.131 37.591,25.653 38.005 C 26.176 38.419,26.603 38.704,26.603 38.638 C 26.603 38.573,26.176 38.181,25.653 37.767 C 25.131 37.353,24.703 37.068,24.703 37.133 M15.677 37.600 C 15.677 37.660,16.180 38.122,16.794 38.625 C 17.409 39.129,17.835 39.417,17.741 39.265 C 17.541 38.942,15.677 37.438,15.677 37.600 M26.841 38.788 C 26.841 38.848,27.344 39.310,27.958 39.813 C 28.573 40.317,28.999 40.605,28.905 40.453 C 28.705 40.130,26.841 38.626,26.841 38.788 M18.269 39.742 C 18.635 40.203,19.952 41.195,19.952 41.010 C 19.952 40.947,19.498 40.541,18.943 40.108 C 18.388 39.675,18.084 39.510,18.269 39.742 M29.216 40.695 C 29.216 40.755,30.205 41.583,31.413 42.535 C 32.622 43.487,33.471 44.096,33.301 43.887 C 32.940 43.445,29.216 40.535,29.216 40.695 M174.584 40.696 C 174.584 40.762,175.012 41.154,175.534 41.568 C 176.057 41.982,176.485 42.267,176.485 42.201 C 176.485 42.136,176.057 41.744,175.534 41.330 C 175.012 40.916,174.584 40.631,174.584 40.696 M22.090 42.739 C 23.262 43.794,25.653 45.660,25.653 45.520 C 25.653 45.402,22.283 42.647,21.615 42.219 C 21.419 42.093,21.633 42.327,22.090 42.739 M176.796 42.445 C 176.996 42.768,178.860 44.272,178.860 44.110 C 178.860 44.050,178.357 43.588,177.743 43.085 C 177.128 42.581,176.702 42.293,176.796 42.445 M179.097 44.231 C 179.097 44.300,180.621 45.564,182.482 47.040 C 184.344 48.517,186.054 49.883,186.283 50.077 C 186.511 50.271,186.698 50.374,186.698 50.305 C 186.698 50.237,185.175 48.973,183.314 47.497 C 181.452 46.020,179.742 44.653,179.513 44.459 C 179.284 44.266,179.097 44.163,179.097 44.231 M34.679 44.972 C 34.679 45.037,35.107 45.429,35.629 45.843 C 36.152 46.257,36.580 46.542,36.580 46.477 C 36.580 46.412,36.152 46.020,35.629 45.606 C 35.107 45.192,34.679 44.907,34.679 44.972 M25.891 45.685 C 25.891 45.750,26.318 46.142,26.841 46.556 C 27.363 46.970,27.791 47.255,27.791 47.190 C 27.791 47.124,27.363 46.732,26.841 46.318 C 26.318 45.904,25.891 45.619,25.891 45.685 M38.242 47.814 C 38.242 47.884,40.460 49.677,43.171 51.799 C 45.882 53.920,48.287 55.817,48.515 56.012 C 48.744 56.208,48.931 56.309,48.931 56.237 C 48.931 56.164,46.980 54.576,44.596 52.707 C 42.212 50.838,39.807 48.944,39.252 48.497 C 38.697 48.051,38.242 47.744,38.242 47.814 M31.647 50.254 C 31.726 50.383,32.672 51.171,33.749 52.005 C 34.825 52.839,35.639 53.414,35.557 53.282 C 35.475 53.149,34.529 52.361,33.455 51.530 C 32.381 50.699,31.567 50.125,31.647 50.254 M186.936 50.435 C 186.936 50.500,187.363 50.893,187.886 51.306 C 188.409 51.720,188.836 52.005,188.836 51.940 C 188.836 51.875,188.409 51.483,187.886 51.069 C 187.363 50.655,186.936 50.370,186.936 50.435 M189.147 52.184 C 189.347 52.507,191.211 54.011,191.211 53.849 C 191.211 53.788,190.709 53.327,190.094 52.823 C 189.480 52.320,189.054 52.032,189.147 52.184 M35.867 53.520 C 35.867 53.580,36.642 54.250,37.589 55.011 C 38.536 55.771,39.178 56.227,39.014 56.023 C 38.666 55.588,35.867 53.362,35.867 53.520 M192.162 54.622 C 192.619 55.030,193.634 55.849,194.418 56.442 C 195.202 57.035,195.469 57.187,195.012 56.779 C 194.555 56.371,193.539 55.552,192.755 54.959 C 191.971 54.366,191.704 54.214,192.162 54.622 M39.430 56.373 C 39.430 56.439,39.857 56.831,40.380 57.245 C 40.903 57.659,41.330 57.944,41.330 57.878 C 41.330 57.813,40.903 57.421,40.380 57.007 C 39.857 56.593,39.430 56.308,39.430 56.373 M49.242 56.459 C 49.442 56.782,51.306 58.287,51.306 58.125 C 51.306 58.064,50.804 57.603,50.189 57.099 C 49.575 56.596,49.149 56.308,49.242 56.459 M196.063 57.691 C 196.146 57.825,196.862 58.427,197.655 59.030 C 198.449 59.634,199.031 60.019,198.949 59.886 C 198.866 59.753,198.150 59.150,197.356 58.547 C 196.563 57.943,195.981 57.558,196.063 57.691 M41.669 58.167 C 41.751 58.300,42.468 58.902,43.261 59.506 C 44.055 60.109,44.637 60.494,44.554 60.361 C 44.472 60.228,43.756 59.625,42.962 59.022 C 42.169 58.418,41.587 58.033,41.669 58.167 M51.544 58.251 C 51.544 58.322,53.331 59.809,55.515 61.554 C 59.990 65.129,60.333 65.391,60.333 65.239 C 60.333 65.179,58.542 63.713,56.354 61.981 C 54.166 60.249,52.188 58.672,51.960 58.476 C 51.731 58.281,51.544 58.180,51.544 58.251 M44.967 60.735 C 45.167 61.058,47.031 62.562,47.031 62.400 C 47.031 62.340,46.528 61.878,45.914 61.375 C 45.299 60.871,44.873 60.583,44.967 60.735 M47.268 62.549 C 47.268 62.614,47.696 63.007,48.219 63.420 C 48.741 63.834,49.169 64.119,49.169 64.054 C 49.169 63.989,48.741 63.597,48.219 63.183 C 47.696 62.769,47.268 62.484,47.268 62.549 M202.791 62.980 C 203.140 63.415,205.938 65.640,205.938 65.482 C 205.938 65.423,205.163 64.752,204.216 63.992 C 203.269 63.231,202.628 62.776,202.791 62.980 M49.478 64.294 C 49.573 64.448,50.099 64.929,50.648 65.363 C 51.196 65.797,51.567 66.026,51.472 65.872 C 51.377 65.719,50.851 65.238,50.303 64.804 C 49.754 64.369,49.383 64.140,49.478 64.294 M60.655 65.504 C 60.843 65.808,62.233 66.836,62.233 66.671 C 62.233 66.613,61.840 66.265,61.361 65.900 C 60.881 65.534,60.564 65.356,60.655 65.504 M206.176 65.626 C 206.176 65.696,206.894 66.323,207.772 67.021 C 209.807 68.638,210.214 68.935,210.214 68.805 C 210.214 68.747,209.439 68.082,208.492 67.327 C 206.185 65.488,206.176 65.482,206.176 65.626 M51.781 66.116 C 51.781 66.251,54.822 68.686,55.335 68.961 C 55.793 69.207,55.112 68.618,53.237 67.148 C 52.437 66.519,51.781 66.055,51.781 66.116 M64.608 68.649 C 65.065 69.064,65.974 69.814,66.627 70.315 C 67.280 70.816,68.456 71.724,69.240 72.333 C 70.312 73.165,70.430 73.223,69.715 72.566 C 68.876 71.795,67.339 70.577,64.608 68.520 L 63.777 67.894 64.608 68.649 M210.451 68.986 C 210.451 69.047,211.760 70.145,213.359 71.425 C 216.884 74.246,217.736 74.880,216.597 73.832 C 215.481 72.807,210.451 68.840,210.451 68.986 M57.245 70.388 C 57.245 70.453,57.672 70.845,58.195 71.259 C 58.717 71.673,59.145 71.958,59.145 71.893 C 59.145 71.827,58.717 71.435,58.195 71.021 C 57.672 70.607,57.245 70.322,57.245 70.388 M62.081 74.293 C 62.268 74.597,63.658 75.625,63.658 75.460 C 63.658 75.401,63.266 75.054,62.786 74.688 C 62.306 74.322,61.989 74.144,62.081 74.293 M72.922 75.130 C 72.922 75.190,73.424 75.652,74.039 76.155 C 74.653 76.659,75.079 76.947,74.986 76.795 C 74.786 76.472,72.922 74.968,72.922 75.130 M219.240 76.008 C 219.697 76.420,220.499 77.079,221.021 77.473 C 221.945 78.170,221.942 78.162,220.903 77.205 C 220.315 76.664,219.513 76.004,219.121 75.740 C 218.497 75.319,218.511 75.352,219.240 76.008 M65.439 76.936 C 65.977 77.559,67.395 78.620,67.142 78.211 C 67.051 78.065,66.524 77.594,65.971 77.165 C 65.290 76.639,65.118 76.564,65.439 76.936 M75.297 77.051 C 75.297 77.116,75.938 77.663,76.722 78.266 C 77.506 78.869,78.147 79.309,78.147 79.244 C 78.147 79.179,77.506 78.632,76.722 78.029 C 75.938 77.425,75.297 76.985,75.297 77.051 M67.458 78.457 C 67.458 78.556,72.487 82.589,73.397 83.219 C 74.224 83.792,72.983 82.692,71.259 81.324 C 68.264 78.948,67.458 78.340,67.458 78.457 M223.744 79.546 C 224.196 79.953,224.665 80.285,224.786 80.285 C 224.906 80.285,224.696 80.052,224.319 79.767 C 223.136 78.874,222.890 78.779,223.744 79.546 M225.694 81.161 C 227.027 82.238,227.266 82.349,226.257 81.420 C 225.729 80.934,225.209 80.534,225.101 80.530 C 224.993 80.526,225.260 80.810,225.694 81.161 M80.760 81.314 C 80.760 81.379,81.188 81.771,81.710 82.185 C 82.233 82.599,82.660 82.884,82.660 82.819 C 82.660 82.754,82.233 82.362,81.710 81.948 C 81.188 81.534,80.760 81.249,80.760 81.314 M84.917 84.672 C 85.309 85.016,86.057 85.622,86.580 86.019 L 87.530 86.742 86.580 85.867 C 86.057 85.385,85.309 84.779,84.917 84.519 L 84.204 84.046 84.917 84.672 M229.929 84.386 C 229.929 84.438,230.383 84.842,230.938 85.283 C 231.493 85.725,231.797 85.898,231.613 85.668 C 231.265 85.236,229.929 84.218,229.929 84.386 M76.247 85.334 C 76.247 85.399,77.236 86.246,78.444 87.216 C 82.117 90.165,83.848 91.496,83.848 91.371 C 83.848 91.305,82.592 90.263,81.057 89.054 C 79.522 87.845,77.812 86.487,77.257 86.036 C 76.701 85.585,76.247 85.269,76.247 85.334 M191.152 85.441 C 191.446 85.497,191.927 85.497,192.221 85.441 C 192.515 85.384,192.274 85.338,191.686 85.338 C 191.099 85.338,190.858 85.384,191.152 85.441 M186.936 85.758 C 186.422 85.873,186.785 85.894,187.886 85.815 C 188.866 85.744,189.712 85.647,189.766 85.599 C 189.939 85.445,187.801 85.566,186.936 85.758 M194.893 85.762 C 195.416 85.870,196.110 85.952,196.437 85.945 C 196.818 85.936,196.690 85.861,196.081 85.735 C 195.558 85.627,194.863 85.544,194.537 85.552 C 194.156 85.560,194.284 85.636,194.893 85.762 M232.067 86.068 C 232.067 86.171,233.710 87.490,236.342 89.498 C 237.356 90.271,237.368 90.274,236.580 89.563 C 235.473 88.564,232.067 85.926,232.067 86.068 M183.610 86.472 C 183.350 86.648,183.446 86.670,183.967 86.553 C 184.840 86.358,185.030 86.222,184.422 86.227 C 184.172 86.229,183.806 86.339,183.610 86.472 M198.812 86.461 C 199.625 86.721,200.249 86.721,199.644 86.461 C 199.382 86.349,198.955 86.260,198.694 86.264 C 198.312 86.269,198.335 86.308,198.812 86.461 M87.648 86.777 C 87.648 86.843,88.076 87.235,88.599 87.648 C 89.121 88.062,89.549 88.348,89.549 88.282 C 89.549 88.217,89.121 87.825,88.599 87.411 C 88.076 86.997,87.648 86.712,87.648 86.777 M203.583 87.976 C 203.826 88.195,205.701 89.071,205.701 88.965 C 205.701 88.830,203.908 87.886,203.652 87.886 C 203.559 87.886,203.528 87.926,203.583 87.976 M89.860 88.526 C 90.060 88.849,91.924 90.353,91.924 90.191 C 91.924 90.131,91.421 89.669,90.807 89.166 C 90.192 88.662,89.766 88.374,89.860 88.526 M177.373 88.925 C 176.013 89.761,175.972 89.959,177.316 89.200 C 178.683 88.428,178.780 88.358,178.484 88.368 C 178.364 88.373,177.864 88.623,177.373 88.925 M207.126 89.860 C 207.126 89.915,207.580 90.260,208.135 90.626 C 208.691 90.993,209.020 91.140,208.866 90.955 C 208.572 90.598,207.126 89.689,207.126 89.860 M92.258 90.463 C 92.355 90.619,92.987 91.165,93.663 91.676 C 94.340 92.187,95.935 93.421,97.209 94.417 C 98.483 95.413,99.525 96.181,99.525 96.123 C 99.525 96.028,93.689 91.336,92.552 90.517 C 92.276 90.318,92.155 90.296,92.258 90.463 M238.032 90.930 C 239.762 92.248,240.380 92.681,240.380 92.575 C 240.380 92.418,237.834 90.499,237.627 90.499 C 237.538 90.499,237.721 90.693,238.032 90.930 M210.432 92.308 C 211.140 92.946,211.942 93.616,212.214 93.796 C 212.486 93.977,212.128 93.603,211.420 92.965 C 210.712 92.327,209.911 91.657,209.639 91.477 C 209.367 91.296,209.724 91.670,210.432 92.308 M85.036 92.381 C 85.624 92.919,86.292 93.468,86.520 93.600 C 87.353 94.082,86.902 93.631,85.451 92.530 C 84.007 91.434,83.996 91.430,85.036 92.381 M171.290 93.527 L 169.208 95.606 171.243 93.715 C 172.362 92.676,173.379 91.740,173.504 91.637 C 173.628 91.534,173.649 91.449,173.550 91.449 C 173.452 91.449,172.435 92.384,171.290 93.527 M242.043 93.894 C 242.043 93.955,242.545 94.416,243.160 94.920 C 243.774 95.423,244.200 95.711,244.107 95.560 C 243.907 95.237,242.043 93.732,242.043 93.894 M213.785 95.665 C 214.492 96.482,215.109 97.150,215.156 97.150 C 215.319 97.150,213.822 95.366,213.162 94.774 C 212.797 94.448,213.078 94.849,213.785 95.665 M88.836 95.328 C 88.836 95.394,89.264 95.786,89.786 96.200 C 90.309 96.613,90.736 96.899,90.736 96.833 C 90.736 96.768,90.309 96.376,89.786 95.962 C 89.264 95.548,88.836 95.263,88.836 95.328 M168.227 96.853 C 167.515 97.764,166.538 99.264,166.795 99.050 C 167.049 98.840,169.124 95.962,169.022 95.962 C 168.968 95.962,168.610 96.363,168.227 96.853 M99.762 96.302 C 99.762 96.407,101.852 98.123,104.810 100.445 C 105.692 101.137,106.413 101.649,106.413 101.582 C 106.413 101.516,104.917 100.277,103.088 98.829 C 101.259 97.381,99.762 96.244,99.762 96.302 M245.962 97.033 C 247.152 98.128,248.694 99.362,248.694 99.221 C 248.694 99.162,247.865 98.449,246.853 97.637 C 245.840 96.824,245.439 96.553,245.962 97.033 M93.429 98.979 C 93.523 99.135,94.265 99.767,95.078 100.382 C 95.891 100.998,97.010 101.871,97.565 102.323 C 98.121 102.775,98.575 103.084,98.575 103.008 C 98.575 102.933,97.533 102.049,96.259 101.043 C 93.100 98.549,93.227 98.642,93.429 98.979 M249.881 100.079 C 249.881 100.144,250.309 100.536,250.831 100.950 C 251.354 101.364,251.781 101.649,251.781 101.584 C 251.781 101.519,251.354 101.126,250.831 100.713 C 250.309 100.299,249.881 100.014,249.881 100.079 M252.019 101.776 C 252.019 101.840,253.328 102.925,254.929 104.188 C 256.529 105.450,258.026 106.644,258.254 106.841 C 258.483 107.038,258.670 107.138,258.670 107.062 C 258.670 106.986,257.173 105.740,255.344 104.292 C 253.515 102.845,252.019 101.712,252.019 101.776 M106.888 101.979 C 106.888 102.044,107.316 102.436,107.838 102.850 C 108.361 103.264,108.789 103.549,108.789 103.484 C 108.789 103.419,108.361 103.027,107.838 102.613 C 107.316 102.199,106.888 101.914,106.888 101.979 M98.812 103.167 C 98.812 103.232,99.240 103.624,99.762 104.038 C 100.285 104.452,100.713 104.737,100.713 104.672 C 100.713 104.606,100.285 104.214,99.762 103.800 C 99.240 103.387,98.812 103.101,98.812 103.167 M109.976 104.346 C 109.976 104.406,110.479 104.868,111.093 105.371 C 111.708 105.875,112.134 106.163,112.040 106.011 C 111.841 105.688,109.976 104.184,109.976 104.346 M163.923 105.011 C 163.777 105.430,163.665 105.889,163.675 106.033 C 163.684 106.177,163.845 105.876,164.032 105.365 C 164.219 104.854,164.331 104.394,164.280 104.344 C 164.229 104.293,164.069 104.593,163.923 105.011 M101.167 105.063 C 101.533 105.524,102.850 106.516,102.850 106.331 C 102.850 106.267,102.396 105.861,101.841 105.428 C 101.286 104.995,100.982 104.831,101.167 105.063 M112.352 106.255 C 112.352 106.320,112.779 106.712,113.302 107.126 C 113.824 107.540,114.252 107.825,114.252 107.760 C 114.252 107.694,113.824 107.302,113.302 106.888 C 112.779 106.474,112.352 106.189,112.352 106.255 M219.518 106.413 C 219.530 107.030,219.904 108.044,219.912 107.482 C 219.916 107.221,219.827 106.793,219.715 106.532 C 219.590 106.241,219.514 106.195,219.518 106.413 M103.088 106.509 C 103.088 106.598,107.056 109.807,110.392 112.415 C 110.555 112.543,110.689 112.590,110.689 112.521 C 110.689 112.452,109.967 111.830,109.086 111.139 C 108.204 110.448,106.493 109.097,105.285 108.137 C 104.077 107.178,103.088 106.445,103.088 106.509 M258.968 107.270 C 259.049 107.401,259.784 108.033,260.601 108.675 C 261.419 109.317,262.009 109.715,261.912 109.559 C 261.816 109.403,261.081 108.771,260.279 108.154 C 259.477 107.537,258.887 107.139,258.968 107.270 M163.064 108.314 C 162.973 108.854,162.952 109.349,163.017 109.414 C 163.082 109.480,163.210 109.091,163.302 108.551 C 163.393 108.011,163.414 107.515,163.349 107.450 C 163.284 107.385,163.155 107.773,163.064 108.314 M115.202 108.541 C 115.659 108.949,116.675 109.768,117.458 110.361 C 118.242 110.955,118.510 111.106,118.052 110.698 C 117.595 110.291,116.580 109.472,115.796 108.879 C 115.012 108.285,114.745 108.134,115.202 108.541 M220.261 110.451 C 220.261 111.170,220.306 111.464,220.360 111.105 C 220.415 110.745,220.415 110.157,220.360 109.798 C 220.306 109.439,220.261 109.733,220.261 110.451 M262.233 109.809 C 262.233 109.869,262.736 110.331,263.350 110.834 C 263.964 111.338,264.391 111.626,264.297 111.474 C 264.097 111.151,262.233 109.647,262.233 109.809 M162.751 111.204 C 162.727 111.814,162.646 112.508,162.571 112.748 C 162.443 113.156,162.451 113.157,162.703 112.765 C 162.850 112.535,162.931 111.841,162.882 111.221 L 162.793 110.095 162.751 111.204 M264.608 111.718 C 264.608 111.783,265.036 112.175,265.558 112.589 C 266.081 113.003,266.508 113.288,266.508 113.223 C 266.508 113.157,266.081 112.765,265.558 112.352 C 265.036 111.938,264.608 111.652,264.608 111.718 M111.876 113.530 C 112.334 113.937,113.349 114.756,114.133 115.350 C 114.917 115.943,115.184 116.094,114.727 115.687 C 114.270 115.279,113.254 114.460,112.470 113.867 C 111.686 113.273,111.419 113.122,111.876 113.530 M121.734 113.709 C 122.347 114.339,128.979 119.525,128.979 119.375 C 128.979 119.312,127.990 118.479,126.781 117.524 C 122.944 114.491,121.245 113.206,121.734 113.709 M267.458 114.014 C 268.555 115.007,271.021 116.922,271.021 116.781 C 271.021 116.674,268.805 114.873,267.340 113.789 C 266.786 113.379,266.812 113.429,267.458 114.014 M162.776 115.321 C 162.778 115.974,162.824 116.213,162.878 115.852 C 162.933 115.491,162.931 114.956,162.875 114.664 C 162.819 114.372,162.774 114.667,162.776 115.321 M220.258 116.271 C 220.260 116.924,220.306 117.163,220.360 116.802 C 220.415 116.441,220.414 115.906,220.357 115.614 C 220.301 115.322,220.256 115.618,220.258 116.271 M116.390 117.100 C 117.344 117.960,118.527 118.844,118.527 118.697 C 118.527 118.642,117.859 118.092,117.043 117.474 C 116.226 116.856,115.932 116.688,116.390 117.100 M162.993 117.696 C 162.993 117.957,163.078 118.438,163.183 118.765 C 163.333 119.235,163.373 119.260,163.373 118.884 C 163.373 118.622,163.287 118.141,163.183 117.815 C 163.032 117.345,162.993 117.320,162.993 117.696 M273.397 118.623 C 273.397 118.712,277.370 121.925,280.701 124.529 C 280.864 124.657,280.998 124.708,280.998 124.642 C 280.998 124.533,280.165 123.856,275.119 119.868 C 274.172 119.120,273.397 118.559,273.397 118.623 M219.626 119.507 C 219.428 120.497,219.620 120.689,219.834 119.715 C 219.924 119.304,219.948 118.919,219.888 118.858 C 219.827 118.798,219.709 119.090,219.626 119.507 M129.216 119.556 C 129.216 119.622,129.644 120.014,130.166 120.428 C 130.689 120.841,131.116 121.127,131.116 121.061 C 131.116 120.996,130.689 120.604,130.166 120.190 C 129.644 119.776,129.216 119.491,129.216 119.556 M163.440 119.631 C 163.413 120.009,164.383 123.107,164.494 122.996 C 164.544 122.946,164.331 122.108,164.022 121.132 C 163.712 120.157,163.450 119.481,163.440 119.631 M121.357 120.978 C 121.723 121.439,123.040 122.431,123.040 122.245 C 123.040 122.182,122.586 121.776,122.031 121.343 C 121.476 120.910,121.172 120.745,121.357 120.978 M219.029 121.642 C 218.882 122.061,218.804 122.446,218.855 122.497 C 218.906 122.548,219.067 122.246,219.214 121.826 C 219.360 121.407,219.438 121.022,219.387 120.971 C 219.336 120.920,219.175 121.222,219.029 121.642 M131.570 121.453 C 131.936 121.914,133.254 122.906,133.254 122.720 C 133.254 122.657,132.800 122.251,132.245 121.818 C 131.689 121.385,131.386 121.220,131.570 121.453 M123.515 122.641 C 123.515 122.705,125.012 123.942,126.841 125.391 C 128.670 126.839,130.166 127.978,130.166 127.923 C 130.166 127.867,129.391 127.196,128.444 126.432 C 125.324 123.913,123.515 122.523,123.515 122.641 M133.848 123.256 C 134.339 123.822,135.629 124.817,135.629 124.629 C 135.629 124.571,135.122 124.114,134.501 123.615 C 133.881 123.116,133.587 122.954,133.848 123.256 M217.853 124.594 C 217.455 125.468,217.531 125.654,217.962 124.860 C 218.163 124.489,218.283 124.142,218.228 124.087 C 218.174 124.033,218.005 124.261,217.853 124.594 M135.867 124.764 C 135.867 124.829,136.909 125.718,138.183 126.739 C 140.968 128.972,141.093 129.066,141.093 128.932 C 141.093 128.874,140.371 128.253,139.489 127.552 C 138.607 126.852,137.432 125.911,136.876 125.462 C 136.321 125.013,135.867 124.699,135.867 124.764 M282.475 125.950 C 283.203 126.505,284.237 127.316,284.773 127.752 C 285.309 128.187,285.748 128.485,285.748 128.413 C 285.748 128.212,281.627 124.941,281.374 124.941 C 281.252 124.941,281.748 125.395,282.475 125.950 M130.404 128.107 C 130.404 128.173,130.831 128.565,131.354 128.979 C 131.876 129.393,132.304 129.678,132.304 129.612 C 132.304 129.547,131.876 129.155,131.354 128.741 C 130.831 128.327,130.404 128.042,130.404 128.107 M285.986 128.591 C 285.986 128.654,287.242 129.694,288.777 130.902 C 293.033 134.251,293.349 134.491,293.349 134.365 C 293.349 134.258,291.091 132.413,289.520 131.235 C 289.171 130.974,288.234 130.246,287.436 129.618 C 286.638 128.990,285.986 128.528,285.986 128.591 M168.583 130.285 C 168.985 130.808,169.669 131.556,170.103 131.948 C 170.561 132.361,170.405 132.112,169.731 131.354 C 168.111 129.530,167.727 129.172,168.583 130.285 M213.221 131.651 C 212.634 132.337,211.477 133.452,210.650 134.129 C 208.380 135.986,207.855 136.469,208.907 135.729 C 210.935 134.303,214.959 130.404,214.403 130.404 C 214.340 130.404,213.808 130.965,213.221 131.651 M144.315 131.508 C 145.150 132.285,152.317 137.963,153.066 138.441 C 153.988 139.029,152.402 137.702,148.567 134.679 C 144.102 131.159,143.287 130.551,144.315 131.508 M135.867 132.383 C 135.867 132.448,136.295 132.840,136.817 133.254 C 137.340 133.668,137.767 133.953,137.767 133.888 C 137.767 133.823,137.340 133.431,136.817 133.017 C 136.295 132.603,135.867 132.318,135.867 132.383 M171.853 133.718 C 172.347 134.285,175.059 136.444,175.059 136.271 C 175.059 136.217,174.231 135.498,173.219 134.673 C 172.206 133.848,171.591 133.419,171.853 133.718 M138.005 134.037 C 138.005 134.097,138.507 134.559,139.122 135.063 C 139.736 135.566,140.162 135.854,140.069 135.702 C 139.869 135.379,138.005 133.875,138.005 134.037 M294.348 135.219 C 295.595 136.351,298.224 138.397,298.031 138.086 C 297.942 137.942,296.879 137.059,295.669 136.122 C 294.458 135.186,293.864 134.779,294.348 135.219 M140.380 135.946 C 140.380 136.011,140.808 136.403,141.330 136.817 C 141.853 137.231,142.280 137.516,142.280 137.451 C 142.280 137.386,141.853 136.993,141.330 136.580 C 140.808 136.166,140.380 135.881,140.380 135.946 M142.518 137.600 C 142.518 137.660,143.021 138.122,143.635 138.625 C 144.249 139.129,144.676 139.417,144.582 139.265 C 144.382 138.942,142.518 137.438,142.518 137.600 M202.969 138.859 C 202.316 139.176,202.049 139.367,202.375 139.284 C 203.053 139.111,204.755 138.258,204.394 138.273 C 204.264 138.278,203.622 138.541,202.969 138.859 M299.050 138.934 C 300.172 139.951,303.641 142.599,303.453 142.295 C 303.321 142.081,301.492 140.630,299.050 138.803 L 298.219 138.181 299.050 138.934 M144.893 139.509 C 144.893 139.574,145.321 139.966,145.843 140.380 C 146.366 140.794,146.793 141.079,146.793 141.014 C 146.793 140.948,146.366 140.556,145.843 140.143 C 145.321 139.729,144.893 139.443,144.893 139.509 M155.107 139.988 C 155.107 140.095,157.323 141.897,158.789 142.981 C 159.343 143.391,159.316 143.340,158.670 142.755 C 157.574 141.763,155.107 139.847,155.107 139.988 M183.967 140.380 C 184.228 140.492,184.656 140.581,184.917 140.577 C 185.299 140.572,185.275 140.533,184.798 140.380 C 183.986 140.120,183.361 140.120,183.967 140.380 M198.456 140.380 C 197.851 140.640,198.475 140.640,199.287 140.380 C 199.765 140.227,199.788 140.189,199.406 140.183 C 199.145 140.179,198.717 140.268,198.456 140.380 M185.986 140.847 C 186.574 141.044,188.294 141.173,188.104 141.006 C 188.049 140.958,187.417 140.859,186.698 140.784 C 185.855 140.697,185.602 140.719,185.986 140.847 M195.843 140.855 L 194.893 141.025 195.724 141.035 C 196.182 141.041,196.823 140.960,197.150 140.855 C 197.913 140.611,197.208 140.611,195.843 140.855 M190.329 141.268 C 191.085 141.316,192.261 141.315,192.942 141.267 C 193.623 141.220,193.005 141.181,191.568 141.181 C 190.131 141.182,189.573 141.221,190.329 141.268 M148.159 142.077 C 148.508 142.512,151.306 144.737,151.306 144.579 C 151.306 144.520,150.531 143.849,149.584 143.089 C 148.637 142.328,147.996 141.873,148.159 142.077 M159.678 143.607 C 159.760 143.740,160.497 144.375,161.314 145.017 C 162.131 145.659,162.733 146.076,162.650 145.942 C 162.568 145.808,161.831 145.174,161.014 144.531 C 160.196 143.889,159.595 143.473,159.678 143.607 M304.988 143.538 C 304.988 143.599,305.491 144.060,306.105 144.564 C 306.720 145.067,307.146 145.355,307.052 145.203 C 306.852 144.880,304.988 143.376,304.988 143.538 M152.732 145.680 C 152.732 145.739,153.124 146.086,153.604 146.452 C 154.083 146.818,154.401 146.996,154.309 146.848 C 154.121 146.543,152.732 145.515,152.732 145.680 M162.945 146.160 C 162.945 146.225,163.373 146.617,163.895 147.031 C 164.418 147.445,164.846 147.730,164.846 147.665 C 164.846 147.599,164.418 147.207,163.895 146.793 C 163.373 146.379,162.945 146.094,162.945 146.160 M309.026 146.784 C 309.483 147.191,310.499 148.010,311.283 148.604 C 312.067 149.197,312.334 149.349,311.876 148.941 C 311.419 148.533,310.404 147.714,309.620 147.121 C 308.836 146.528,308.569 146.376,309.026 146.784 M154.851 147.349 C 155.036 147.581,155.838 148.252,156.632 148.840 C 157.426 149.428,157.740 149.609,157.329 149.242 C 156.017 148.070,154.502 146.912,154.851 147.349 M165.157 147.908 C 165.357 148.231,167.221 149.735,167.221 149.574 C 167.221 149.513,166.718 149.051,166.104 148.548 C 165.489 148.044,165.063 147.757,165.157 147.908 M167.458 149.723 C 167.458 149.788,167.886 150.180,168.409 150.594 C 168.931 151.008,169.359 151.293,169.359 151.228 C 169.359 151.162,168.931 150.770,168.409 150.356 C 167.886 149.942,167.458 149.657,167.458 149.723 M312.827 149.721 C 312.827 149.781,313.869 150.650,315.143 151.652 C 316.416 152.655,317.062 153.113,316.578 152.671 C 315.451 151.643,312.827 149.579,312.827 149.721 M169.670 151.471 C 169.870 151.794,171.734 153.298,171.734 153.136 C 171.734 153.076,171.231 152.614,170.617 152.111 C 170.002 151.607,169.576 151.319,169.670 151.471 M171.971 153.290 C 171.971 153.397,174.188 155.198,175.653 156.282 C 176.207 156.692,176.181 156.642,175.534 156.057 C 174.438 155.064,171.971 153.149,171.971 153.290 M319.002 154.628 C 319.460 155.041,320.261 155.702,320.784 156.096 L 321.734 156.813 320.903 156.061 C 320.445 155.648,319.644 154.987,319.121 154.593 L 318.171 153.876 319.002 154.628 M163.988 154.590 C 164.087 154.749,164.721 155.298,165.397 155.810 C 166.074 156.321,167.001 157.022,167.458 157.368 L 168.290 157.997 167.458 157.245 C 166.213 156.117,163.784 154.259,163.988 154.590 M176.545 156.913 C 176.626 157.044,177.361 157.677,178.179 158.319 C 178.996 158.961,179.586 159.359,179.489 159.203 C 179.393 159.047,178.658 158.414,177.856 157.797 C 177.054 157.180,176.465 156.783,176.545 156.913 M321.954 156.979 C 322.036 157.112,322.753 157.714,323.546 158.318 C 324.340 158.921,324.922 159.306,324.839 159.173 C 324.757 159.040,324.041 158.438,323.247 157.834 C 322.454 157.231,321.872 156.846,321.954 156.979 M169.359 158.740 C 169.359 158.801,169.861 159.262,170.476 159.766 C 171.090 160.269,171.516 160.557,171.423 160.405 C 171.223 160.082,169.359 158.578,169.359 158.740 M179.810 159.461 C 179.810 159.527,180.238 159.919,180.760 160.333 C 181.283 160.746,181.710 161.032,181.710 160.966 C 181.710 160.901,181.283 160.509,180.760 160.095 C 180.238 159.681,179.810 159.396,179.810 159.461 M325.178 159.461 C 325.178 159.527,325.606 159.919,326.128 160.333 C 326.651 160.746,327.078 161.032,327.078 160.966 C 327.078 160.901,326.651 160.509,326.128 160.095 C 325.606 159.681,325.178 159.396,325.178 159.461 M171.808 160.735 C 172.007 161.058,173.872 162.562,173.872 162.400 C 173.872 162.340,173.369 161.878,172.755 161.375 C 172.140 160.871,171.714 160.583,171.808 160.735 M327.390 161.210 C 327.589 161.533,329.454 163.037,329.454 162.875 C 329.454 162.815,328.951 162.353,328.336 161.850 C 327.722 161.346,327.296 161.058,327.390 161.210 M175.000 163.217 C 175.349 163.652,178.147 165.878,178.147 165.719 C 178.147 165.660,177.372 164.990,176.425 164.229 C 175.478 163.469,174.837 163.013,175.000 163.217 M329.749 163.084 C 329.832 163.218,330.568 163.852,331.385 164.495 C 332.203 165.137,332.804 165.553,332.721 165.419 C 332.639 165.286,331.902 164.651,331.085 164.009 C 330.268 163.367,329.666 162.951,329.749 163.084 M333.233 165.876 C 333.580 166.308,334.917 167.326,334.917 167.158 C 334.917 167.106,334.463 166.702,333.907 166.261 C 333.352 165.819,333.049 165.646,333.233 165.876 M190.548 167.994 C 191.675 169.022,194.299 171.087,194.299 170.944 C 194.299 170.885,193.257 170.015,191.983 169.013 C 190.710 168.011,190.064 167.552,190.548 167.994 M180.760 167.766 C 180.760 167.827,181.263 168.288,181.877 168.792 C 182.492 169.295,182.918 169.583,182.824 169.432 C 182.624 169.108,180.760 167.604,180.760 167.766 M336.342 168.235 C 336.342 168.302,337.384 169.187,338.658 170.202 C 341.629 172.569,341.568 172.523,341.568 172.399 C 341.568 172.342,340.846 171.721,339.964 171.020 C 339.083 170.320,337.907 169.379,337.352 168.930 C 336.796 168.481,336.342 168.168,336.342 168.235 M183.848 170.308 C 184.859 171.218,185.986 172.048,185.986 171.883 C 185.986 171.816,185.318 171.266,184.501 170.661 C 183.685 170.055,183.391 169.897,183.848 170.308 M194.592 171.156 C 194.672 171.285,195.618 172.073,196.694 172.908 C 197.770 173.742,198.584 174.316,198.502 174.184 C 198.421 174.052,197.475 173.264,196.401 172.433 C 195.326 171.602,194.512 171.027,194.592 171.156 M186.936 172.682 C 188.123 173.755,191.924 176.755,191.924 176.619 C 191.924 176.557,190.883 175.673,189.611 174.654 C 186.756 172.368,185.846 171.698,186.936 172.682 M342.117 172.849 C 342.316 173.172,344.181 174.676,344.181 174.514 C 344.181 174.454,343.678 173.992,343.063 173.489 C 342.449 172.985,342.023 172.697,342.117 172.849 M199.050 174.667 C 199.050 174.830,202.164 177.251,202.253 177.157 C 202.294 177.114,201.590 176.511,200.689 175.817 C 199.787 175.123,199.050 174.605,199.050 174.667 M346.081 176.010 C 346.538 176.424,347.553 177.242,348.337 177.829 C 349.121 178.416,349.388 178.563,348.931 178.156 C 348.474 177.749,347.458 176.930,346.675 176.337 C 345.891 175.744,345.624 175.597,346.081 176.010 M193.112 177.514 C 193.112 177.579,193.539 177.971,194.062 178.385 C 194.584 178.799,195.012 179.084,195.012 179.019 C 195.012 178.953,194.584 178.561,194.062 178.147 C 193.539 177.733,193.112 177.448,193.112 177.514 M205.226 179.573 C 206.566 180.774,209.183 182.784,208.722 182.258 C 208.490 181.993,207.421 181.113,206.347 180.302 C 205.273 179.492,204.768 179.163,205.226 179.573 M349.881 178.939 C 349.881 179.004,350.309 179.396,350.831 179.810 C 351.354 180.224,351.781 180.509,351.781 180.444 C 351.781 180.378,351.354 179.986,350.831 179.572 C 350.309 179.159,349.881 178.873,349.881 178.939 M197.194 180.806 C 198.221 181.756,202.850 185.346,202.850 185.192 C 202.850 185.096,200.004 182.814,197.387 180.813 L 196.318 179.995 197.194 180.806 M352.476 181.076 C 353.081 181.742,353.211 181.825,353.199 181.532 C 353.195 181.434,352.901 181.149,352.546 180.898 L 351.900 180.442 352.476 181.076 M353.444 181.793 C 353.444 181.847,353.925 182.285,354.513 182.766 C 355.101 183.248,355.578 183.555,355.573 183.448 C 355.563 183.255,353.444 181.607,353.444 181.793 M209.347 182.840 C 209.440 182.990,209.852 183.353,210.264 183.646 C 210.675 183.939,210.936 184.056,210.843 183.906 C 210.750 183.756,210.338 183.393,209.926 183.100 C 209.515 182.807,209.254 182.690,209.347 182.840 M211.164 184.157 C 211.164 184.304,211.948 184.943,217.340 189.186 C 218.973 190.472,220.496 191.683,220.724 191.879 C 220.953 192.075,221.140 192.175,221.140 192.101 C 221.140 192.028,219.617 190.763,217.755 189.291 C 213.834 186.191,212.163 184.857,211.580 184.364 C 211.351 184.170,211.164 184.077,211.164 184.157 M203.325 185.590 C 203.325 185.655,203.753 186.047,204.276 186.461 C 204.798 186.875,205.226 187.160,205.226 187.095 C 205.226 187.029,204.798 186.637,204.276 186.223 C 203.753 185.809,203.325 185.524,203.325 185.590 M359.112 186.288 C 359.458 186.720,361.758 188.430,361.758 188.256 C 361.758 188.198,361.090 187.641,360.273 187.018 C 359.457 186.395,358.934 186.066,359.112 186.288 M206.811 188.433 C 208.979 190.199,209.739 190.780,209.739 190.673 C 209.739 190.515,206.484 187.886,206.289 187.886 C 206.207 187.886,206.441 188.132,206.811 188.433 M362.008 188.537 C 362.024 188.749,365.320 191.299,365.419 191.176 C 365.456 191.130,364.701 190.477,363.741 189.725 C 362.781 188.973,362.001 188.438,362.008 188.537 M221.556 192.433 C 221.904 192.868,224.703 195.094,224.703 194.936 C 224.703 194.876,223.928 194.206,222.981 193.445 C 222.034 192.685,221.393 192.229,221.556 192.433 M213.064 193.341 C 213.521 193.746,214.751 194.722,215.796 195.510 C 216.841 196.299,217.322 196.613,216.865 196.208 C 216.407 195.803,215.178 194.827,214.133 194.038 C 213.088 193.250,212.607 192.936,213.064 193.341 M369.121 194.125 C 369.121 194.201,370.110 195.038,371.318 195.986 C 372.527 196.934,373.970 198.078,374.525 198.527 C 375.080 198.977,375.534 199.286,375.534 199.215 C 375.534 199.143,374.279 198.099,372.743 196.893 C 371.208 195.687,369.765 194.540,369.537 194.344 C 369.308 194.148,369.121 194.050,369.121 194.125 M226.214 196.145 C 226.401 196.449,227.791 197.478,227.791 197.313 C 227.791 197.254,227.399 196.907,226.919 196.541 C 226.439 196.175,226.122 195.997,226.214 196.145 M229.454 198.669 C 229.454 198.725,230.710 199.748,232.245 200.941 C 233.780 202.134,234.608 202.721,234.086 202.246 C 232.979 201.239,229.454 198.517,229.454 198.669 M220.275 198.996 C 220.463 199.300,221.853 200.328,221.853 200.163 C 221.853 200.104,221.460 199.757,220.981 199.391 C 220.501 199.025,220.184 198.847,220.275 198.996 M375.833 199.431 C 375.914 199.562,376.649 200.194,377.466 200.837 C 378.283 201.479,378.873 201.877,378.777 201.721 C 378.680 201.565,377.946 200.932,377.144 200.315 C 376.342 199.698,375.752 199.300,375.833 199.431 M222.090 200.326 C 222.090 200.438,225.357 203.128,226.128 203.651 C 226.445 203.866,226.445 203.853,226.128 203.529 C 225.557 202.945,222.090 200.195,222.090 200.326 M379.314 202.218 C 379.661 202.650,380.998 203.668,380.998 203.500 C 380.998 203.448,380.543 203.044,379.988 202.603 C 379.433 202.161,379.129 201.988,379.314 202.218 M381.473 203.879 C 381.473 203.945,381.900 204.337,382.423 204.751 C 382.945 205.164,383.373 205.450,383.373 205.384 C 383.373 205.319,382.945 204.927,382.423 204.513 C 381.900 204.099,381.473 203.814,381.473 203.879 M237.233 204.785 C 237.581 205.220,240.380 207.445,240.380 207.287 C 240.380 207.228,239.605 206.557,238.658 205.797 C 237.711 205.036,237.069 204.581,237.233 204.785 M228.860 205.806 C 229.382 206.281,230.131 206.888,230.523 207.155 L 231.235 207.640 230.523 207.015 C 230.131 206.671,229.382 206.064,228.860 205.666 L 227.910 204.943 228.860 205.806 M384.900 206.623 C 384.981 206.755,385.964 207.570,387.084 208.435 C 388.204 209.299,389.054 209.898,388.972 209.766 C 388.890 209.635,387.907 208.819,386.788 207.955 C 385.668 207.090,384.818 206.491,384.900 206.623 M241.863 208.452 C 241.946 208.586,242.682 209.221,243.499 209.863 C 244.317 210.505,244.918 210.921,244.835 210.788 C 244.753 210.654,244.016 210.019,243.199 209.377 C 242.382 208.735,241.780 208.319,241.863 208.452 M232.542 208.630 C 232.542 208.695,232.969 209.087,233.492 209.501 C 234.014 209.915,234.442 210.200,234.442 210.135 C 234.442 210.070,234.014 209.678,233.492 209.264 C 232.969 208.850,232.542 208.565,232.542 208.630 M389.311 210.039 C 389.311 210.091,389.765 210.495,390.321 210.937 C 390.876 211.378,391.179 211.551,390.995 211.321 C 390.648 210.889,389.311 209.871,389.311 210.039 M235.867 211.243 C 235.867 211.308,236.295 211.700,236.817 212.114 C 237.340 212.528,237.767 212.813,237.767 212.748 C 237.767 212.682,237.340 212.290,236.817 211.876 C 236.295 211.463,235.867 211.177,235.867 211.243 M247.268 212.659 C 247.268 212.720,247.771 213.181,248.386 213.685 C 249.000 214.188,249.426 214.476,249.332 214.325 C 249.133 214.002,247.268 212.497,247.268 212.659 M393.765 213.573 C 394.113 214.009,396.912 216.234,396.912 216.076 C 396.912 216.016,396.137 215.346,395.190 214.585 C 394.243 213.825,393.602 213.370,393.765 213.573 M239.266 213.941 C 239.466 214.264,241.330 215.769,241.330 215.607 C 241.330 215.546,240.827 215.085,240.213 214.581 C 239.599 214.078,239.172 213.790,239.266 213.941 M249.717 214.654 C 249.917 214.977,251.781 216.481,251.781 216.319 C 251.781 216.259,251.279 215.797,250.664 215.294 C 250.050 214.790,249.624 214.502,249.717 214.654 M252.019 216.452 C 252.019 216.505,252.473 216.909,253.029 217.350 C 253.584 217.791,253.887 217.964,253.703 217.735 C 253.356 217.302,252.019 216.285,252.019 216.452 M398.318 217.188 C 398.634 217.578,399.525 218.167,399.525 217.987 C 399.525 217.941,399.178 217.650,398.753 217.339 C 398.275 216.989,398.109 216.932,398.318 217.188 M243.705 217.403 C 243.705 217.469,244.480 218.144,245.428 218.902 C 246.375 219.661,247.604 220.648,248.159 221.096 C 248.714 221.543,249.169 221.856,249.169 221.789 C 249.169 221.723,248.394 221.048,247.447 220.290 C 246.499 219.532,245.270 218.545,244.715 218.097 C 244.160 217.649,243.705 217.337,243.705 217.403 M254.231 218.217 C 254.430 218.540,256.295 220.044,256.295 219.882 C 256.295 219.822,255.792 219.360,255.177 218.857 C 254.563 218.353,254.137 218.065,254.231 218.217 M258.195 221.371 C 259.492 222.523,261.909 224.373,261.587 223.968 C 261.428 223.768,260.413 222.936,259.331 222.119 C 258.249 221.302,257.738 220.965,258.195 221.371 M249.881 222.422 C 250.444 223.049,251.306 223.656,251.306 223.425 C 251.306 223.366,250.852 222.967,250.297 222.539 C 249.365 221.820,249.333 221.811,249.881 222.422 M251.656 223.742 C 251.804 223.981,253.622 225.417,255.081 226.447 C 255.549 226.777,255.526 226.730,254.988 226.256 C 253.818 225.224,251.483 223.463,251.656 223.742 M264.207 226.055 C 264.406 226.378,266.271 227.883,266.271 227.721 C 266.271 227.660,265.768 227.199,265.154 226.695 C 264.539 226.192,264.113 225.904,264.207 226.055 M256.295 227.395 C 256.295 227.460,256.722 227.852,257.245 228.266 C 257.767 228.680,258.195 228.965,258.195 228.900 C 258.195 228.834,257.767 228.442,257.245 228.029 C 256.722 227.615,256.295 227.329,256.295 227.395 M268.052 229.133 C 269.004 230.031,275.534 235.198,275.534 235.053 C 275.534 234.926,268.712 229.423,268.171 229.113 C 267.945 228.984,267.902 228.991,268.052 229.133 M259.382 229.761 C 259.382 229.822,259.885 230.283,260.500 230.787 C 261.114 231.290,261.540 231.578,261.446 231.427 C 261.247 231.104,259.382 229.599,259.382 229.761 M263.183 232.870 C 263.183 232.935,263.824 233.482,264.608 234.086 C 265.392 234.689,266.033 235.129,266.033 235.063 C 266.033 234.998,265.392 234.451,264.608 233.848 C 263.824 233.245,263.183 232.805,263.183 232.870 M266.271 235.233 C 266.271 235.299,266.698 235.691,267.221 236.105 C 267.743 236.518,268.171 236.804,268.171 236.738 C 268.171 236.673,267.743 236.281,267.221 235.867 C 266.698 235.453,266.271 235.168,266.271 235.233 M275.772 235.237 C 275.772 235.300,276.226 235.706,276.781 236.139 C 277.337 236.572,277.640 236.737,277.456 236.505 C 277.090 236.044,275.772 235.052,275.772 235.237 " stroke="none" fill="#cb1423" fill-rule="evenodd"></path><path id="path1" d="M-0.000 131.710 L -0.000 237.530 134.264 237.471 C 223.674 237.431,268.488 237.332,268.409 237.173 C 268.343 237.043,268.157 236.951,267.995 236.968 C 267.834 236.986,267.753 236.917,267.817 236.814 C 267.880 236.711,266.997 235.924,265.854 235.064 C 264.712 234.204,263.607 233.338,263.401 233.140 C 263.194 232.941,262.828 232.779,262.589 232.779 C 262.350 232.779,262.225 232.708,262.312 232.620 C 262.559 232.373,261.738 231.591,261.232 231.591 C 260.983 231.591,260.841 231.493,260.915 231.372 C 261.090 231.090,259.747 230.125,259.496 230.351 C 259.391 230.446,259.384 230.388,259.478 230.224 C 259.580 230.047,259.490 229.864,259.256 229.774 C 259.039 229.691,258.526 229.316,258.115 228.941 C 257.704 228.566,257.228 228.313,257.057 228.378 C 256.885 228.444,256.800 228.409,256.868 228.300 C 256.998 228.088,256.274 227.369,254.784 226.234 C 252.858 224.765,252.410 224.490,252.181 224.631 C 252.052 224.711,252.018 224.660,252.106 224.517 C 252.194 224.374,251.989 224.064,251.651 223.827 C 251.313 223.590,250.545 222.987,249.946 222.486 C 249.346 221.985,248.605 221.480,248.299 221.363 C 247.994 221.247,247.743 221.062,247.743 220.952 C 247.743 220.563,243.458 217.318,243.165 217.486 C 243.005 217.578,242.955 217.565,243.053 217.456 C 243.305 217.178,242.532 216.390,242.006 216.390 C 241.765 216.390,241.594 216.261,241.627 216.103 C 241.660 215.946,241.553 215.799,241.390 215.777 C 241.226 215.755,240.979 215.723,240.841 215.707 C 240.703 215.690,240.643 215.590,240.709 215.484 C 240.831 215.286,238.656 213.444,238.236 213.391 C 238.109 213.374,237.898 213.348,237.767 213.331 C 237.637 213.315,237.530 213.154,237.530 212.974 C 237.530 212.602,237.099 212.191,236.588 212.074 C 236.105 211.964,235.658 211.555,235.787 211.342 C 235.846 211.244,235.737 211.164,235.545 211.164 C 235.352 211.164,235.158 211.058,235.115 210.928 C 234.975 210.510,230.526 207.136,230.440 207.383 C 230.334 207.689,229.691 207.175,229.691 206.783 C 229.691 206.418,226.599 203.923,226.128 203.908 C 225.932 203.902,225.797 203.772,225.829 203.620 C 225.860 203.467,225.743 203.397,225.570 203.464 C 225.267 203.580,224.760 203.170,224.728 202.785 C 224.714 202.611,223.237 201.354,220.915 199.540 C 220.340 199.091,219.953 198.858,220.055 199.023 C 220.202 199.262,220.142 199.261,219.756 199.020 C 219.489 198.854,219.291 198.605,219.315 198.468 C 219.339 198.331,219.217 198.248,219.044 198.284 C 218.871 198.320,218.798 198.239,218.881 198.104 C 218.964 197.969,218.839 197.787,218.602 197.700 C 218.365 197.612,218.118 197.466,218.052 197.375 C 217.748 196.949,211.968 192.557,211.712 192.557 C 211.553 192.557,211.477 192.468,211.545 192.359 C 211.612 192.251,211.500 192.162,211.297 192.162 C 211.093 192.162,210.953 192.069,210.986 191.955 C 211.036 191.782,207.767 189.074,207.508 189.074 C 207.461 189.074,206.981 188.658,206.442 188.150 C 205.902 187.642,205.277 187.241,205.052 187.259 C 204.827 187.277,204.641 187.159,204.638 186.995 C 204.634 186.832,204.525 186.684,204.394 186.666 C 204.264 186.649,204.016 186.433,203.844 186.187 C 203.671 185.941,203.414 185.812,203.272 185.900 C 203.131 185.987,203.081 185.952,203.162 185.820 C 203.318 185.568,200.556 183.449,200.205 183.551 C 200.092 183.584,200.027 183.519,200.059 183.407 C 200.092 183.295,199.531 182.744,198.812 182.183 C 196.711 180.541,196.795 180.597,197.026 180.998 C 197.154 181.220,197.038 181.184,196.715 180.901 C 196.143 180.399,196.040 180.172,196.496 180.416 C 196.660 180.503,196.473 180.290,196.081 179.943 C 195.689 179.596,195.048 179.161,194.656 178.976 C 194.264 178.792,194.038 178.637,194.153 178.632 C 194.269 178.627,194.057 178.382,193.683 178.088 C 193.308 177.794,192.920 177.580,192.819 177.613 C 192.719 177.645,192.637 177.559,192.637 177.421 C 192.637 177.282,192.555 177.219,192.456 177.281 C 192.232 177.419,191.608 176.970,191.313 176.458 C 190.933 175.798,186.880 172.691,186.605 172.848 C 186.460 172.930,186.421 172.910,186.518 172.803 C 186.781 172.513,186.241 171.979,185.840 172.134 C 185.648 172.207,185.522 172.162,185.560 172.034 C 185.634 171.783,181.884 168.646,181.510 168.646 C 181.387 168.646,181.224 168.485,181.148 168.288 C 181.073 168.090,180.918 167.957,180.805 167.991 C 180.692 168.025,180.300 167.699,179.935 167.267 C 179.547 166.809,179.131 166.536,178.934 166.611 C 178.749 166.682,178.658 166.642,178.732 166.523 C 178.879 166.286,176.782 164.690,176.450 164.786 C 176.339 164.819,176.274 164.753,176.306 164.640 C 176.369 164.423,174.128 162.470,173.817 162.470 C 173.716 162.470,173.438 162.283,173.198 162.055 C 172.497 161.386,170.524 159.755,170.169 159.551 C 169.990 159.448,169.510 159.060,169.103 158.689 C 168.604 158.232,168.204 158.055,167.871 158.142 C 167.480 158.245,167.410 158.187,167.535 157.864 C 167.650 157.563,167.505 157.379,166.977 157.157 C 166.584 156.992,166.324 156.795,166.399 156.720 C 166.474 156.645,166.224 156.362,165.842 156.090 C 165.460 155.818,165.085 155.659,165.008 155.736 C 164.931 155.813,164.708 155.716,164.512 155.520 C 164.316 155.324,164.207 155.113,164.269 155.050 C 164.331 154.988,164.219 154.802,164.020 154.637 C 163.821 154.471,163.658 154.394,163.658 154.464 C 163.658 154.535,163.295 154.254,162.851 153.840 C 161.432 152.519,160.042 151.465,159.718 151.465 C 159.545 151.465,159.446 151.395,159.498 151.311 C 159.551 151.226,158.834 150.576,157.906 149.866 C 156.977 149.156,155.834 148.243,155.365 147.838 C 154.897 147.433,154.219 147.030,153.860 146.943 C 153.501 146.856,153.207 146.639,153.207 146.461 C 153.207 146.283,152.485 145.591,151.603 144.924 C 150.721 144.256,149.842 143.575,149.650 143.411 C 149.457 143.246,149.285 143.165,149.268 143.230 C 149.252 143.296,148.965 143.025,148.632 142.630 C 148.299 142.234,147.723 141.753,147.351 141.561 C 146.979 141.369,146.479 140.998,146.241 140.736 C 146.002 140.475,145.874 140.394,145.956 140.555 C 146.054 140.749,145.980 140.801,145.738 140.709 C 145.536 140.631,145.423 140.484,145.486 140.382 C 145.637 140.137,145.014 139.626,144.811 139.829 C 144.590 140.049,143.452 138.935,143.620 138.663 C 143.696 138.541,143.505 138.477,143.197 138.520 C 142.793 138.577,142.636 138.483,142.634 138.185 C 142.633 137.957,142.526 137.756,142.397 137.737 C 142.267 137.719,142.021 137.502,141.848 137.256 C 141.676 137.010,141.443 136.866,141.330 136.936 C 141.217 137.006,140.977 136.851,140.796 136.593 C 140.362 135.973,137.249 133.495,136.902 133.493 C 136.753 133.492,136.577 133.353,136.512 133.184 C 136.447 133.015,134.752 131.603,132.746 130.046 C 130.739 128.489,128.477 126.704,127.719 126.078 C 126.961 125.453,126.180 124.941,125.983 124.941 C 125.786 124.941,125.684 124.845,125.757 124.728 C 125.886 124.519,125.230 124.116,124.881 124.190 C 124.783 124.211,124.730 124.132,124.762 124.014 C 124.795 123.897,124.757 123.817,124.678 123.836 C 124.599 123.856,124.242 123.524,123.885 123.099 C 123.527 122.674,123.137 122.387,123.019 122.460 C 122.900 122.533,122.803 122.502,122.803 122.390 C 122.803 122.102,119.224 119.345,118.953 119.424 C 118.830 119.460,118.790 119.391,118.864 119.272 C 119.026 119.009,117.986 118.290,117.445 118.290 C 117.232 118.290,117.006 118.103,116.944 117.874 C 116.808 117.378,113.203 114.580,112.820 114.673 C 112.674 114.709,112.614 114.641,112.688 114.522 C 112.851 114.258,112.251 113.719,112.034 113.936 C 111.834 114.136,110.901 113.297,111.052 113.053 C 111.178 112.850,109.493 111.725,109.204 111.819 C 109.106 111.850,109.053 111.787,109.086 111.677 C 109.152 111.453,107.764 110.214,107.446 110.214 C 107.333 110.214,107.107 110.000,106.943 109.739 C 106.780 109.477,106.513 109.264,106.350 109.264 C 106.186 109.264,105.913 109.041,105.743 108.769 C 105.570 108.490,105.286 108.331,105.095 108.404 C 104.909 108.475,104.782 108.436,104.813 108.317 C 104.892 108.012,102.653 106.177,101.722 105.783 C 101.298 105.604,100.950 105.398,100.950 105.327 C 100.950 105.256,101.084 105.273,101.247 105.365 C 101.883 105.724,100.982 104.967,98.100 102.720 C 96.467 101.447,95.344 100.650,95.606 100.950 L 96.081 101.494 95.546 101.214 C 95.252 101.060,95.010 100.804,95.009 100.645 C 95.006 100.360,93.337 98.919,90.204 96.496 C 89.317 95.811,88.528 95.249,88.451 95.249 C 88.374 95.249,88.099 94.980,87.840 94.651 C 87.330 94.002,86.013 93.209,85.629 93.320 C 85.499 93.358,85.467 93.314,85.559 93.222 C 85.872 92.909,80.623 88.746,80.226 88.992 C 80.083 89.080,80.044 89.035,80.135 88.887 C 80.229 88.735,79.951 88.462,79.467 88.233 C 79.011 88.016,78.661 87.770,78.689 87.684 C 78.718 87.599,78.644 87.513,78.525 87.492 C 78.406 87.471,78.212 87.281,78.095 87.071 C 77.977 86.861,77.778 86.752,77.652 86.830 C 77.526 86.908,77.452 86.868,77.488 86.742 C 77.579 86.423,75.491 84.797,75.213 84.969 C 75.088 85.046,75.052 85.003,75.132 84.873 C 75.305 84.593,74.053 83.610,73.525 83.610 C 73.324 83.610,73.159 83.457,73.159 83.270 C 73.159 83.083,72.945 82.862,72.684 82.779 C 72.423 82.696,72.209 82.547,72.209 82.447 C 72.209 82.207,70.004 80.626,69.774 80.702 C 69.676 80.734,69.623 80.661,69.656 80.539 C 69.741 80.221,68.146 79.085,67.861 79.261 C 67.730 79.342,67.691 79.297,67.775 79.161 C 67.943 78.890,67.537 78.469,66.988 78.345 C 66.796 78.302,66.440 78.025,66.198 77.729 C 65.956 77.434,65.643 77.264,65.502 77.350 C 65.357 77.440,65.316 77.397,65.407 77.250 C 65.599 76.938,64.628 76.207,64.295 76.412 C 64.166 76.492,64.128 76.447,64.212 76.311 C 64.297 76.175,64.206 75.931,64.012 75.770 C 63.817 75.608,63.656 75.570,63.654 75.684 C 63.652 75.797,63.550 75.731,63.427 75.537 C 63.304 75.342,63.011 75.181,62.777 75.180 C 62.543 75.179,62.376 75.052,62.406 74.897 C 62.463 74.600,60.201 72.684,59.793 72.684 C 59.661 72.684,59.255 72.373,58.892 71.993 C 58.529 71.613,58.172 71.361,58.100 71.433 C 57.915 71.617,57.225 71.008,57.364 70.783 C 57.427 70.681,57.199 70.415,56.857 70.191 C 56.516 69.968,56.316 69.914,56.413 70.071 C 56.511 70.229,56.283 70.167,55.908 69.933 C 54.886 69.295,54.393 68.841,54.513 68.646 C 54.693 68.355,53.734 67.636,53.422 67.828 C 53.254 67.932,53.194 67.908,53.280 67.769 C 53.361 67.638,52.461 66.764,51.280 65.827 C 50.100 64.889,49.210 64.245,49.303 64.396 C 49.408 64.566,49.348 64.624,49.142 64.550 C 48.961 64.484,48.834 64.324,48.861 64.194 C 48.917 63.923,47.186 62.470,46.807 62.470 C 46.669 62.470,46.556 62.363,46.556 62.233 C 46.556 62.102,46.395 61.995,46.200 61.995 C 46.004 61.995,45.843 61.882,45.843 61.744 C 45.843 61.605,45.720 61.568,45.569 61.662 C 45.407 61.762,45.359 61.727,45.451 61.578 C 45.652 61.253,43.417 59.456,42.102 58.887 C 41.547 58.646,41.093 58.292,41.093 58.101 C 41.093 57.679,39.803 56.714,39.561 56.955 C 39.467 57.049,39.426 57.009,39.470 56.867 C 39.555 56.587,38.207 55.344,37.818 55.344 C 37.687 55.344,37.519 55.184,37.444 54.988 C 37.369 54.792,37.155 54.632,36.969 54.632 C 36.783 54.632,36.569 54.471,36.494 54.276 C 36.418 54.080,36.175 53.919,35.954 53.919 C 35.732 53.919,35.617 53.853,35.699 53.771 C 35.916 53.553,32.957 51.318,32.668 51.481 C 32.533 51.558,32.498 51.537,32.589 51.436 C 32.801 51.200,30.288 49.140,29.892 49.224 C 29.728 49.259,29.589 49.127,29.583 48.931 C 29.577 48.735,29.439 48.561,29.276 48.545 C 29.112 48.529,28.865 48.502,28.727 48.486 C 28.589 48.469,28.536 48.358,28.610 48.239 C 28.748 48.016,24.900 44.881,24.393 44.804 C 23.868 44.724,23.506 44.387,23.667 44.127 C 23.762 43.974,23.716 43.938,23.552 44.039 C 23.401 44.132,23.278 44.095,23.278 43.957 C 23.278 43.819,23.118 43.705,22.922 43.705 C 22.726 43.705,22.592 43.625,22.625 43.527 C 22.657 43.429,22.631 43.330,22.565 43.307 C 22.500 43.283,21.924 42.784,21.286 42.198 C 20.647 41.612,19.990 41.184,19.825 41.248 C 19.660 41.311,19.445 41.232,19.346 41.072 C 19.224 40.874,19.266 40.843,19.477 40.974 C 19.683 41.101,19.731 41.073,19.619 40.892 C 19.526 40.741,19.295 40.618,19.107 40.618 C 18.919 40.618,18.765 40.517,18.765 40.394 C 18.765 40.086,16.178 38.108,15.881 38.189 C 15.749 38.225,15.700 38.160,15.771 38.045 C 15.929 37.789,13.766 36.202,13.379 36.291 C 13.116 36.351,12.719 35.935,12.711 35.591 C 12.705 35.311,10.600 33.756,10.398 33.881 C 10.290 33.948,10.231 33.899,10.267 33.773 C 10.361 33.445,8.268 31.832,7.969 32.001 C 7.832 32.079,7.799 32.056,7.895 31.949 C 7.991 31.843,7.617 31.428,7.064 31.028 C 6.510 30.628,6.004 30.243,5.938 30.174 C 5.385 29.586,3.086 27.797,3.081 27.951 C 3.077 28.059,2.964 27.960,2.831 27.732 C 2.698 27.503,2.393 27.316,2.154 27.316 C 1.911 27.316,1.660 27.095,1.588 26.817 C 1.516 26.543,1.354 26.382,1.229 26.459 C 1.103 26.537,0.939 26.441,0.864 26.246 C 0.789 26.050,0.564 25.891,0.364 25.891 C 0.038 25.891,-0.000 36.843,-0.000 131.710 " stroke="none" fill="#04247c" fill-rule="evenodd"></path><path id="path2" d="M123.409 0.209 C 123.533 0.324,126.253 2.480,129.454 4.999 C 132.654 7.518,135.968 10.132,136.817 10.807 C 137.666 11.481,139.579 12.987,141.068 14.152 C 142.557 15.317,146.138 18.146,149.026 20.437 C 151.913 22.728,155.626 25.668,157.277 26.969 C 158.929 28.270,162.135 30.798,164.403 32.586 C 166.672 34.374,171.146 37.894,174.347 40.410 C 177.548 42.925,181.663 46.170,183.492 47.621 C 185.321 49.072,189.260 52.178,192.246 54.524 C 195.231 56.869,198.400 59.376,199.288 60.095 C 200.176 60.814,202.204 62.417,203.797 63.658 C 207.894 66.852,218.593 75.303,220.413 76.784 C 221.255 77.469,222.591 78.500,223.382 79.077 C 224.174 79.654,224.875 80.195,224.941 80.279 C 225.053 80.425,228.524 83.193,231.501 85.511 C 232.256 86.099,234.224 87.648,235.874 88.955 C 237.524 90.261,240.241 92.399,241.913 93.705 C 243.584 95.012,246.034 96.944,247.357 97.999 C 248.680 99.054,252.061 101.721,254.869 103.925 C 259.855 107.838,265.306 112.142,268.409 114.615 C 269.258 115.292,271.716 117.225,273.872 118.909 C 277.949 122.097,280.247 123.907,284.540 127.316 C 285.939 128.426,287.700 129.816,288.454 130.404 C 289.961 131.579,295.375 135.852,297.303 137.387 C 297.975 137.923,299.312 138.977,300.272 139.730 C 301.233 140.483,303.470 142.247,305.243 143.649 C 307.017 145.052,310.641 147.910,313.298 150.000 C 317.744 153.498,322.178 156.996,324.228 158.622 C 324.685 158.985,327.357 161.090,330.166 163.300 C 332.975 165.510,337.518 169.093,340.261 171.263 C 343.005 173.432,347.013 176.588,349.169 178.275 C 351.324 179.963,353.141 181.402,353.207 181.474 C 353.272 181.545,353.806 181.974,354.394 182.426 C 354.982 182.878,355.583 183.356,355.730 183.488 C 355.877 183.621,356.831 184.371,357.850 185.154 C 360.440 187.146,365.415 191.050,365.558 191.204 C 365.723 191.380,368.294 193.417,372.922 197.036 C 375.077 198.722,378.936 201.762,381.497 203.792 C 384.057 205.822,386.979 208.124,387.989 208.907 C 388.999 209.691,391.553 211.706,393.665 213.384 C 397.880 216.732,399.630 218.052,399.854 218.052 C 399.934 218.052,399.996 216.048,399.991 213.599 L 399.982 209.145 398.744 208.281 C 398.063 207.806,395.508 205.828,393.066 203.887 C 390.624 201.945,386.829 198.939,384.634 197.207 C 382.438 195.475,379.187 192.910,377.410 191.506 C 375.633 190.103,372.817 187.886,371.153 186.580 C 369.488 185.273,365.487 182.120,362.261 179.572 C 359.035 177.025,353.140 172.380,349.160 169.249 C 345.180 166.119,340.428 162.373,338.599 160.925 C 336.770 159.477,334.056 157.335,332.569 156.165 C 331.082 154.995,327.394 152.086,324.374 149.701 C 321.354 147.315,317.765 144.483,316.399 143.406 C 315.032 142.330,312.769 140.540,311.369 139.430 C 309.969 138.319,307.191 136.128,305.196 134.561 C 298.837 129.563,298.047 128.942,292.516 124.584 C 289.531 122.233,286.066 119.499,284.815 118.508 C 283.565 117.518,280.992 115.484,279.097 113.989 C 277.203 112.493,273.905 109.883,271.768 108.188 C 269.631 106.493,267.530 104.840,267.100 104.513 C 266.669 104.186,264.897 102.797,263.162 101.425 C 261.427 100.053,258.438 97.702,256.520 96.200 C 253.514 93.845,238.756 82.207,236.342 80.286 C 235.885 79.923,234.175 78.573,232.542 77.287 C 230.909 76.002,228.705 74.253,227.645 73.401 C 226.585 72.550,225.356 71.569,224.914 71.222 C 220.437 67.712,216.314 64.474,214.283 62.870 C 212.928 61.801,211.200 60.445,210.443 59.857 C 209.188 58.883,200.916 52.360,195.962 48.439 C 193.637 46.598,186.961 41.335,185.036 39.824 C 184.317 39.260,182.179 37.573,180.285 36.074 C 174.070 31.157,171.422 29.065,168.171 26.504 C 166.407 25.115,163.628 22.924,161.995 21.635 C 160.362 20.346,157.102 17.777,154.751 15.925 C 142.562 6.328,135.947 1.092,135.212 0.461 C 134.635 -0.035,122.875 -0.285,123.409 0.209 M0.014 21.542 L 0.027 25.297 1.585 26.485 C 2.442 27.138,3.692 28.104,4.362 28.633 C 7.216 30.880,8.502 31.895,9.620 32.783 C 10.273 33.302,11.935 34.608,13.313 35.687 C 14.691 36.766,17.183 38.717,18.852 40.024 C 20.520 41.330,23.562 43.735,25.610 45.369 C 27.659 47.002,31.045 49.670,33.135 51.299 C 35.226 52.927,38.325 55.363,40.024 56.712 C 43.209 59.241,46.434 61.789,50.356 64.875 C 53.755 67.549,56.798 69.950,60.114 72.575 C 61.758 73.876,64.269 75.855,65.696 76.973 C 71.550 81.559,86.496 93.329,88.599 95.009 C 89.840 96.000,91.496 97.312,92.280 97.925 C 93.064 98.537,94.828 99.923,96.200 101.004 C 97.571 102.085,101.406 105.108,104.722 107.720 C 108.037 110.333,112.687 114.002,115.054 115.875 C 117.422 117.748,120.160 119.904,121.140 120.667 C 122.120 121.429,124.418 123.240,126.247 124.690 C 129.222 127.049,136.567 132.841,141.926 137.055 C 143.006 137.904,145.581 139.935,147.647 141.568 C 151.858 144.896,154.816 147.217,156.061 148.172 C 157.259 149.092,162.804 153.524,162.945 153.676 C 163.011 153.746,163.703 154.278,164.483 154.859 C 165.264 155.440,166.712 156.562,167.700 157.352 C 169.527 158.812,170.663 159.710,179.357 166.569 C 182.048 168.691,186.163 171.941,188.502 173.790 C 190.841 175.640,193.664 177.865,194.774 178.737 C 197.133 180.587,202.589 184.891,208.789 189.792 C 211.205 191.702,215.053 194.736,217.340 196.534 C 219.626 198.331,223.688 201.537,226.366 203.657 C 229.044 205.776,233.800 209.531,236.936 211.999 C 240.071 214.468,244.881 218.258,247.625 220.423 C 250.368 222.587,252.893 224.569,253.236 224.827 C 253.871 225.306,257.959 228.556,260.787 230.831 C 261.648 231.523,263.683 233.121,265.311 234.384 C 266.938 235.646,268.461 236.870,268.696 237.104 C 269.075 237.483,269.613 237.530,273.634 237.530 C 278.124 237.530,278.633 237.431,277.613 236.756 C 277.319 236.561,275.082 234.812,272.642 232.868 C 266.580 228.041,264.649 226.512,260.095 222.939 C 257.939 221.248,255.158 219.055,253.915 218.067 C 252.671 217.079,249.959 214.935,247.889 213.302 C 245.818 211.669,242.229 208.836,239.912 207.007 C 237.596 205.178,233.800 202.185,231.476 200.356 C 229.153 198.527,225.369 195.542,223.068 193.722 C 216.213 188.301,214.467 186.922,212.470 185.352 C 211.425 184.530,208.642 182.332,206.285 180.468 C 203.928 178.604,200.569 175.956,198.820 174.584 C 195.133 171.691,189.654 167.362,185.748 164.253 C 184.246 163.058,181.734 161.079,180.166 159.856 C 178.599 158.633,176.033 156.617,174.466 155.377 C 169.035 151.080,167.328 149.732,164.940 147.851 C 163.621 146.812,160.373 144.252,157.722 142.162 C 155.072 140.071,151.288 137.088,149.314 135.532 C 147.340 133.976,144.915 132.052,143.925 131.256 C 142.936 130.461,141.766 129.543,141.326 129.216 C 140.525 128.622,136.244 125.244,134.173 123.572 C 133.569 123.084,131.708 121.615,130.039 120.309 C 128.370 119.002,123.080 114.834,118.283 111.045 C 113.486 107.257,108.400 103.248,106.980 102.138 C 105.560 101.027,103.053 99.050,101.408 97.743 C 99.764 96.437,97.321 94.513,95.980 93.468 C 94.638 92.423,92.397 90.659,91.000 89.549 C 89.602 88.438,87.448 86.732,86.213 85.757 C 84.978 84.782,83.913 83.923,83.848 83.847 C 83.783 83.772,82.607 82.840,81.235 81.777 C 79.863 80.714,77.619 78.963,76.247 77.884 C 74.875 76.806,73.325 75.596,72.803 75.194 C 71.206 73.968,66.568 70.285,64.402 68.522 C 63.274 67.604,61.710 66.375,60.926 65.789 C 59.702 64.875,56.957 62.710,49.644 56.890 C 48.795 56.214,45.596 53.692,42.536 51.286 C 33.641 44.293,23.595 36.379,21.000 34.322 C 19.682 33.278,17.384 31.466,15.893 30.296 C 14.403 29.127,11.954 27.200,10.451 26.014 C 8.949 24.829,6.704 23.063,5.463 22.089 C 4.222 21.116,3.153 20.258,3.088 20.184 C 3.023 20.110,2.301 19.540,1.485 18.918 L 0.000 17.787 0.014 21.542 M187.648 85.847 C 167.063 88.682,156.483 110.293,167.055 127.909 C 176.244 143.220,199.478 145.586,212.368 132.523 C 231.063 113.580,214.422 82.159,187.648 85.847 " stroke="none" fill="#f8d21b" fill-rule="evenodd"></path><path id="path3" d="M0.000 8.763 L 0.000 17.527 4.608 21.174 C 7.142 23.180,11.658 26.743,14.643 29.091 C 17.629 31.439,21.621 34.583,23.515 36.078 C 25.410 37.573,27.654 39.344,28.504 40.013 C 29.353 40.683,31.063 42.035,32.304 43.017 C 35.153 45.273,39.396 48.615,46.793 54.430 C 49.994 56.946,54.443 60.453,56.681 62.222 C 58.918 63.992,62.113 66.508,63.782 67.815 C 65.450 69.121,68.076 71.205,69.617 72.447 C 71.158 73.688,73.250 75.344,74.265 76.128 C 75.279 76.912,77.236 78.445,78.613 79.534 C 79.990 80.624,81.918 82.147,82.898 82.919 C 83.878 83.692,86.406 85.686,88.516 87.352 C 90.626 89.017,93.986 91.663,95.983 93.230 C 97.979 94.798,101.770 97.791,104.406 99.881 C 107.041 101.971,110.359 104.590,111.779 105.701 C 113.198 106.811,116.500 109.411,119.116 111.478 C 121.731 113.544,125.529 116.542,127.553 118.139 C 152.396 137.733,154.368 139.288,156.068 140.618 C 157.972 142.107,172.579 153.635,175.178 155.699 C 176.354 156.633,178.652 158.452,180.285 159.741 C 181.918 161.030,184.483 163.059,185.986 164.250 C 187.488 165.440,190.267 167.631,192.162 169.119 C 194.056 170.606,196.621 172.625,197.862 173.606 C 199.103 174.586,200.600 175.765,201.188 176.225 C 201.776 176.686,202.310 177.124,202.375 177.199 C 202.441 177.274,203.830 178.372,205.463 179.639 C 207.096 180.906,208.806 182.236,209.264 182.594 C 209.721 182.953,211.057 184.001,212.233 184.923 C 213.409 185.846,217.203 188.847,220.665 191.594 C 224.127 194.340,228.082 197.465,229.454 198.537 C 230.825 199.610,232.803 201.171,233.848 202.007 C 234.893 202.843,238.420 205.630,241.686 208.200 C 244.952 210.770,248.694 213.720,250.000 214.755 C 252.539 216.767,254.594 218.388,262.914 224.941 C 265.817 227.227,269.942 230.487,272.081 232.185 C 274.220 233.884,276.513 235.699,277.177 236.219 C 277.841 236.739,278.385 237.246,278.385 237.347 C 278.385 237.447,305.748 237.530,339.192 237.530 L 400.000 237.530 400.000 227.918 C 400.000 218.348,399.998 218.305,399.493 218.035 C 399.214 217.886,397.944 216.947,396.670 215.948 C 395.397 214.950,392.445 212.637,390.112 210.808 C 387.779 208.979,384.731 206.574,383.340 205.463 C 381.949 204.353,379.446 202.375,377.777 201.069 C 376.107 199.762,372.649 197.035,370.091 195.007 C 367.532 192.980,364.691 190.737,363.777 190.025 C 362.862 189.312,362.061 188.667,361.995 188.592 C 361.930 188.516,361.449 188.140,360.926 187.755 C 360.404 187.370,359.104 186.360,358.037 185.511 C 356.207 184.053,352.023 180.753,346.342 176.286 C 344.957 175.197,343.236 173.836,342.518 173.262 C 341.284 172.276,336.115 168.195,333.254 165.947 C 330.910 164.105,323.462 158.236,320.546 155.933 C 312.044 149.217,302.323 141.562,301.183 140.685 C 300.467 140.134,298.599 138.662,297.031 137.413 C 295.463 136.165,293.058 134.268,291.686 133.199 C 290.315 132.130,287.589 129.983,285.629 128.427 C 283.670 126.872,281.705 125.317,281.262 124.973 C 280.820 124.629,278.789 123.016,276.749 121.389 C 274.709 119.762,272.067 117.678,270.877 116.757 C 269.688 115.836,264.998 112.144,260.457 108.551 C 255.916 104.958,251.153 101.207,249.873 100.215 C 248.593 99.223,246.908 97.887,246.129 97.246 C 245.349 96.605,243.880 95.439,242.863 94.656 C 241.847 93.872,240.899 93.124,240.757 92.993 C 240.615 92.862,239.857 92.281,239.074 91.702 C 238.290 91.123,237.595 90.586,237.530 90.509 C 237.464 90.432,235.113 88.562,232.304 86.354 C 224.980 80.598,225.071 80.670,224.941 80.531 C 224.875 80.461,224.127 79.876,223.278 79.231 C 222.429 78.587,220.772 77.296,219.596 76.362 C 218.420 75.429,215.787 73.338,213.744 71.715 C 211.701 70.093,208.930 67.910,207.587 66.865 C 206.244 65.819,204.485 64.430,203.678 63.777 C 202.872 63.124,201.858 62.322,201.425 61.995 C 200.993 61.669,199.974 60.867,199.162 60.214 C 198.350 59.561,196.950 58.451,196.052 57.749 C 193.790 55.981,186.519 50.247,182.911 47.387 C 181.263 46.081,178.485 43.890,176.738 42.518 C 174.990 41.146,172.212 38.955,170.563 37.648 C 168.914 36.342,165.804 33.890,163.652 32.200 C 158.808 28.396,156.529 26.597,151.588 22.673 C 149.456 20.981,147.356 19.329,146.920 19.002 C 145.899 18.237,135.109 9.737,130.641 6.178 C 128.747 4.670,126.806 3.145,126.327 2.790 C 125.848 2.435,125.314 2.008,125.139 1.841 C 124.965 1.674,124.379 1.191,123.838 0.769 L 122.853 0.000 61.427 0.000 L 0.000 0.000 0.000 8.763 M12.827 35.986 C 12.989 36.182,13.229 36.342,13.360 36.342 C 13.492 36.342,13.467 36.184,13.302 35.986 C 13.139 35.790,12.899 35.629,12.768 35.629 C 12.636 35.629,12.662 35.787,12.827 35.986 M23.612 44.383 C 24.114 44.950,24.228 45.001,24.228 44.664 C 24.228 44.538,23.988 44.309,23.694 44.154 C 23.162 43.875,23.162 43.877,23.612 44.383 M41.093 58.178 C 41.093 58.401,41.834 58.907,42.160 58.907 C 42.422 58.907,42.031 58.443,41.554 58.188 C 41.253 58.026,41.093 58.023,41.093 58.178 M54.622 68.990 C 55.096 69.562,56.527 70.335,56.374 69.936 C 56.302 69.749,56.111 69.596,55.950 69.596 C 55.788 69.596,55.462 69.382,55.226 69.121 C 54.738 68.582,54.183 68.462,54.622 68.990 M57.482 71.140 C 57.645 71.336,57.885 71.496,58.015 71.496 C 58.148 71.496,58.122 71.339,57.957 71.140 C 57.795 70.944,57.555 70.784,57.424 70.784 C 57.292 70.784,57.317 70.941,57.482 71.140 M58.982 72.081 C 59.350 72.439,59.704 72.680,59.768 72.615 C 59.832 72.551,59.531 72.258,59.099 71.964 L 58.314 71.430 58.982 72.081 M197.031 85.916 C 221.883 90.244,228.961 121.799,208.303 136.169 C 202.283 140.356,192.489 142.427,185.986 140.887 C 177.323 138.836,170.397 133.976,166.479 127.197 C 154.384 106.274,172.600 81.661,197.031 85.916 M95.012 100.704 C 95.012 100.830,95.252 101.060,95.546 101.214 C 96.078 101.493,96.078 101.492,95.628 100.985 C 95.126 100.419,95.012 100.367,95.012 100.704 M111.283 113.539 C 111.519 113.800,111.802 114.014,111.911 114.014 C 112.020 114.014,111.926 113.800,111.703 113.539 C 111.479 113.278,111.196 113.064,111.074 113.064 C 110.952 113.064,111.046 113.278,111.283 113.539 M142.553 138.230 C 142.606 138.387,142.726 138.507,142.821 138.498 C 143.105 138.468,143.050 138.142,142.743 138.040 C 142.587 137.988,142.501 138.074,142.553 138.230 M144.001 139.358 C 144.353 139.710,144.713 139.927,144.801 139.839 C 144.975 139.665,143.969 138.738,143.592 138.725 C 143.464 138.721,143.648 139.006,144.001 139.358 M153.207 146.522 C 153.207 146.766,153.926 147.103,154.092 146.937 C 154.150 146.879,153.975 146.713,153.702 146.567 C 153.429 146.421,153.207 146.401,153.207 146.522 M191.342 176.548 C 191.488 176.929,192.399 177.513,192.399 177.226 C 192.399 177.110,192.135 176.841,191.812 176.630 C 191.416 176.370,191.263 176.344,191.342 176.548 M225.288 203.442 C 225.674 203.758,226.037 203.971,226.093 203.915 C 226.230 203.778,225.124 202.866,224.822 202.867 C 224.691 202.867,224.901 203.126,225.288 203.442 " stroke="none" fill="#040404" fill-rule="evenodd"></path></g></svg>