<?xml version="1.0" encoding="utf-8"?>
<!-- Generator: Adobe Illustrator 24.0.0, SVG Export Plug-In . SVG Version: 6.00 Build 0)  -->
<svg version="1.1" xmlns="http://www.w3.org/2000/svg" xmlns:xlink="http://www.w3.org/1999/xlink" x="0px" y="0px"
	 viewBox="0 0 841.89 595.28" style="enable-background:new 0 0 841.89 595.28;" xml:space="preserve">
<style type="text/css">
	.st0{fill:#C6C6C6;}
	.st1{stroke:#000000;stroke-miterlimit:10;}
</style>
<g id="sfondo">
	<circle class="st0" cx="402.98" cy="305.72" r="325.28"/>
</g>
<g id="piedistallo">
	<ellipse class="st1" cx="391.29" cy="385.42" rx="83.06" ry="6.32"/>
	<ellipse class="st1" cx="391.29" cy="398.05" rx="83.06" ry="6.32"/>
	<rect x="308.23" y="385.42" class="st1" width="166.12" height="12.63"/>
</g>
<g id="asta">
	<path class="st1" d="M387.96,389.08L387.96,389.08c-4.85,0-8.78-1.54-8.78-6.38V173.75c0-4.85,3.93-11.61,8.78-11.61l0,0
		c4.85,0,8.78,6.76,8.78,11.61v208.94C396.74,387.54,392.81,389.08,387.96,389.08z"/>
</g>
<g id="bandiera">
	<polygon class="st1" points="525.85,242.87 396.74,173.35 396.74,281.62 	"/>
	<polygon class="st1" points="526.48,243.21 522.31,247.82 396.74,286.13 396.74,173.35 	"/>
</g>
</svg>
